<svg width="218" height="400" viewBox="0 0 218 400" fill="none" xmlns="http://www.w3.org/2000/svg">
<g filter="url(#filter0_d_12_64)">
<path d="M110.638 392C154.069 392 189.277 357.078 189.277 314C189.277 270.922 154.069 236 110.638 236C67.2076 236 32 270.922 32 314C32 357.078 67.2076 392 110.638 392Z" fill="#F2F2F2"/>
<path d="M182.305 314.976C182.306 324.298 180.455 333.53 176.859 342.143C173.262 350.756 167.99 358.582 161.344 365.174C154.698 371.766 146.808 376.995 138.125 380.562C129.441 384.13 120.134 385.965 110.735 385.965C102.358 385.96 94.0459 384.507 86.1719 381.67C73.8603 377.221 63.0152 369.508 54.8172 359.369C46.6192 349.23 41.3826 337.055 39.6776 324.168C37.9725 311.282 39.8643 298.179 45.147 286.285C50.4298 274.391 58.9009 264.163 69.6382 256.714C80.3755 249.265 92.9674 244.88 106.043 244.037C119.119 243.194 132.177 245.926 143.796 251.934C155.414 257.943 165.149 266.997 171.939 278.113C178.729 289.229 182.314 301.979 182.305 314.976Z" fill="white"/>
<path d="M86.7817 322.764C98.9814 322.764 108.871 312.955 108.871 300.854C108.871 288.753 98.9814 278.944 86.7817 278.944C74.5821 278.944 64.6923 288.753 64.6923 300.854C64.6923 312.955 74.5821 322.764 86.7817 322.764Z" fill="#E4E4E4"/>
<path d="M179.513 295.283C174.726 297.567 169.268 298.064 164.142 296.682C159.015 295.3 154.562 292.131 151.6 287.757C148.637 283.383 147.363 278.097 148.01 272.867C148.658 267.636 151.184 262.813 155.126 259.28C166.841 268.466 175.367 281.054 179.513 295.283Z" fill="#F2F2F2"/>
<path d="M134.592 346.526C138.984 346.526 142.544 342.995 142.544 338.639C142.544 334.282 138.984 330.751 134.592 330.751C130.2 330.751 126.64 334.282 126.64 338.639C126.64 342.995 130.2 346.526 134.592 346.526Z" fill="#E4E4E4"/>
<path d="M101.9 383.335C101.899 384.028 101.807 384.717 101.626 385.386C96.3492 384.731 91.1648 383.485 86.1719 381.67C86.5866 379.767 87.6962 378.083 89.2872 376.943C90.8782 375.802 92.8382 375.286 94.7902 375.492C96.7421 375.699 98.548 376.614 99.8605 378.062C101.173 379.51 101.899 381.388 101.9 383.335Z" fill="#F2F2F2"/>
<path d="M55.0701 311.47C55.0697 315.472 53.5362 319.324 50.7802 322.246C48.0241 325.169 44.2514 326.943 40.226 327.21C38.4039 316.793 38.9351 306.104 41.7811 295.914C45.4938 296.528 48.8666 298.428 51.2998 301.276C53.7331 304.125 55.069 307.737 55.0701 311.47Z" fill="#F2F2F2"/>
<path d="M134.35 312.412C134.35 312.412 133.042 316.019 131 321.2C130.34 322.884 129.601 324.731 128.804 326.676C127.694 329.384 126.471 332.282 125.19 335.179C124.403 336.962 123.593 338.742 122.775 340.482C118.377 349.807 113.692 357.886 110.623 357.999C103.727 358.252 88.9551 317.338 87.3429 312.817C87.2486 312.552 87.2 312.412 87.2 312.412H134.35Z" fill="#DDBEA9"/>
<path opacity="0.1" d="M131 321.2C130.34 322.884 129.601 324.731 128.804 326.676L110.537 312.412H119.745L131 321.2Z" fill="black"/>
<path opacity="0.1" d="M125.19 335.179C124.403 336.962 123.593 338.742 122.775 340.482L87.3429 312.817C87.2486 312.552 87.2 312.412 87.2 312.412H96.0337L125.19 335.179Z" fill="black"/>
<path d="M111.592 276.175C109.431 277.693 106.013 277.119 103.936 278.727C102.515 279.827 102.136 281.708 102.523 283.345C102.911 284.982 103.941 286.434 104.978 287.832C105.693 288.796 106.435 289.768 107.441 290.501C108.846 291.527 110.649 292.004 112.417 292.388C116.267 293.222 120.199 293.728 124.157 293.897C125.923 293.972 127.922 293.897 129.111 292.737C129.804 292.062 130.083 291.137 130.286 290.243C130.603 288.843 130.779 287.336 130.123 286.033C129.584 284.961 128.546 284.158 127.495 283.445C124.199 281.208 120.317 279.357 118.305 276.137C117.505 274.858 117.012 273.375 115.8 272.382C114.22 271.088 110.705 270.559 108.845 271.423C109.132 272.004 112.888 275.265 111.592 276.175Z" fill="#DEAAFF"/>
<path d="M93.429 291.265C92.7882 293.236 92.1978 295.321 92.7374 297.315C93.4489 299.945 96.0488 301.914 98.9007 302.871C101.753 303.828 104.863 303.94 107.91 304.041L123.865 304.569C125.87 304.636 127.914 304.709 129.798 305.32C131.351 305.824 133.197 306.653 134.492 305.741C135.08 305.327 135.343 304.657 135.552 304.018C136.23 301.939 136.609 299.656 135.697 297.649C134.652 295.348 132.075 293.836 129.4 293.114C126.724 292.391 123.891 292.321 121.111 292.048C118.291 291.771 115.503 291.282 112.776 290.585C110.497 290.003 108.188 289.234 106.502 287.754C105.59 286.954 104.9 285.978 104.04 285.133C99.1165 280.295 94.6401 287.541 93.429 291.265Z" fill="#DEAAFF"/>
<path d="M89.923 300.319C88.3712 300.935 87.0252 301.896 86.0153 303.109C85.0054 304.322 84.3659 305.746 84.1587 307.243C83.9515 308.74 84.1837 310.258 84.8327 311.652C85.4817 313.046 86.5256 314.267 87.8632 315.198C90.2926 316.889 93.4719 317.477 96.5521 317.673C99.5599 317.866 102.581 317.733 105.593 317.601L132.241 316.431C133.803 316.362 135.571 316.203 136.525 315.103C137.236 314.283 137.278 313.151 137.108 312.127C136.497 308.444 133.36 305.182 129.355 304.066C127.844 303.645 126.253 303.512 124.677 303.381L113.253 302.433C111.715 302.305 110.167 302.176 108.676 301.817C104.159 300.728 100.122 297.549 95.4712 298.02C92.3158 298.339 89.7178 300.298 87.4256 302.247" fill="#DEAAFF"/>
<path opacity="0.1" d="M104.843 284.359C104.843 284.359 108.571 290.328 127.696 292.739L104.843 284.359Z" fill="black"/>
<path opacity="0.1" d="M94.264 299.994C94.264 299.994 101.193 306.208 129.787 306.208L94.264 299.994Z" fill="black"/>
<path d="M110.318 281.392C111.326 281.392 112.144 281.15 112.144 280.852C112.144 280.554 111.326 280.313 110.318 280.313C109.31 280.313 108.493 280.554 108.493 280.852C108.493 281.15 109.31 281.392 110.318 281.392Z" fill="#7D1AAB"/>
<path d="M116.402 284.898C117.41 284.898 118.227 284.657 118.227 284.359C118.227 284.061 117.41 283.819 116.402 283.819C115.394 283.819 114.577 284.061 114.577 284.359C114.577 284.657 115.394 284.898 116.402 284.898Z" fill="#7D1AAB"/>
<path d="M123.399 288.675C124.407 288.675 125.224 288.433 125.224 288.135C125.224 287.837 124.407 287.596 123.399 287.596C122.391 287.596 121.573 287.837 121.573 288.135C121.573 288.433 122.391 288.675 123.399 288.675Z" fill="#7D1AAB"/>
<path d="M99.0633 290.293C100.071 290.293 100.888 290.052 100.888 289.754C100.888 289.456 100.071 289.214 99.0633 289.214C98.0553 289.214 97.2382 289.456 97.2382 289.754C97.2382 290.052 98.0553 290.293 99.0633 290.293Z" fill="#7D1AAB"/>
<path d="M114.577 295.418C115.585 295.418 116.402 295.177 116.402 294.879C116.402 294.581 115.585 294.339 114.577 294.339C113.569 294.339 112.752 294.581 112.752 294.879C112.752 295.177 113.569 295.418 114.577 295.418Z" fill="#7D1AAB"/>
<path d="M92.6753 305.938C93.6833 305.938 94.5004 305.697 94.5004 305.399C94.5004 305.101 93.6833 304.859 92.6753 304.859C91.6672 304.859 90.8501 305.101 90.8501 305.399C90.8501 305.697 91.6672 305.938 92.6753 305.938Z" fill="#7D1AAB"/>
<path d="M104.235 295.958C105.243 295.958 106.06 295.716 106.06 295.418C106.06 295.121 105.243 294.879 104.235 294.879C103.227 294.879 102.409 295.121 102.409 295.418C102.409 295.716 103.227 295.958 104.235 295.958Z" fill="#7D1AAB"/>
<path d="M97.2382 309.985C98.2462 309.985 99.0634 309.743 99.0634 309.445C99.0634 309.147 98.2462 308.906 97.2382 308.906C96.2302 308.906 95.4131 309.147 95.4131 309.445C95.4131 309.743 96.2302 309.985 97.2382 309.985Z" fill="#7D1AAB"/>
<path d="M109.102 307.557C110.11 307.557 110.927 307.315 110.927 307.017C110.927 306.719 110.11 306.478 109.102 306.478C108.094 306.478 107.276 306.719 107.276 307.017C107.276 307.315 108.094 307.557 109.102 307.557Z" fill="#7D1AAB"/>
<path d="M116.25 320.505C117.342 320.505 118.227 318.874 118.227 316.863C118.227 314.852 117.342 313.221 116.25 313.221C115.158 313.221 114.273 314.852 114.273 316.863C114.273 318.874 115.158 320.505 116.25 320.505Z" fill="#DEAAFF"/>
<path d="M118.684 321.853C119.776 321.853 120.661 320.223 120.661 318.212C120.661 316.201 119.776 314.57 118.684 314.57C117.592 314.57 116.706 316.201 116.706 318.212C116.706 320.223 117.592 321.853 118.684 321.853Z" fill="#DEAAFF"/>
</g>
<g filter="url(#filter1_d_12_64)">
<path d="M120.734 136.348C64.0103 160.473 15.6142 168.797 10.5554 155.3C7.52245 147.207 20.5606 133.291 46.3268 117.12C46.4182 117.061 46.5194 117.022 46.6246 117.004C46.7298 116.986 46.8369 116.989 46.9398 117.014C47.0427 117.039 47.1395 117.085 47.2244 117.149C47.3094 117.213 47.3809 117.294 47.435 117.387C47.4891 117.481 47.5247 117.585 47.5396 117.694C47.5546 117.803 47.5488 117.914 47.5223 118.022C47.4959 118.129 47.4495 118.231 47.3857 118.321C47.3219 118.41 47.242 118.487 47.1506 118.545L47.1479 118.547L47.1389 118.553C22.8673 133.786 9.42788 147.621 12.0652 154.657C16.6399 166.863 66.1374 157.768 120.152 134.795C174.166 111.823 215.934 82.104 211.36 69.8982C208.711 62.8318 189.914 62.6878 162.302 69.5229C162.199 69.5492 162.091 69.5541 161.987 69.5373C161.882 69.5206 161.782 69.4825 161.693 69.4253C161.603 69.3681 161.526 69.2928 161.465 69.2039C161.404 69.1149 161.361 69.0139 161.339 68.9068C161.316 68.7996 161.314 68.6883 161.332 68.5792C161.351 68.4701 161.39 68.3654 161.447 68.2711C161.505 68.1767 161.579 68.0946 161.666 68.0293C161.753 67.964 161.852 67.9169 161.955 67.8906L161.958 67.89L161.963 67.8885C191.27 60.6338 209.825 61.1323 212.869 69.256C217.928 82.7536 177.457 112.224 120.734 136.348Z" fill="white"/>
<path d="M85.5661 130.158C37.5877 93.794 7.1441 56.5684 16.2586 45.41C21.7231 38.7202 39.9156 42.8443 66.1709 56.7256C66.265 56.7743 66.3475 56.841 66.4137 56.9219C66.48 57.0027 66.5286 57.0962 66.557 57.1968C66.5853 57.2975 66.5927 57.4035 66.5788 57.5086C66.5649 57.6138 66.5299 57.7161 66.4758 57.8098C66.4218 57.9034 66.3498 57.9866 66.2638 58.0544C66.1779 58.1223 66.0798 58.1736 65.9751 58.2053C65.8703 58.2371 65.761 58.2487 65.6534 58.2395C65.5458 58.2303 65.442 58.2006 65.3479 58.1518L65.3452 58.1504L65.3361 58.1456C40.6034 45.0697 22.2874 40.5606 17.5357 46.3779C9.29344 56.4685 40.9277 94.2469 86.6147 128.874C132.302 163.501 177.862 184.23 186.105 174.139C190.876 168.298 181.942 152.131 162.788 131.948C162.716 131.872 162.659 131.783 162.623 131.685C162.587 131.586 162.571 131.482 162.577 131.376C162.583 131.27 162.61 131.166 162.657 131.069C162.704 130.971 162.769 130.883 162.85 130.809C162.931 130.736 163.025 130.678 163.128 130.638C163.23 130.599 163.339 130.58 163.447 130.581C163.556 130.582 163.662 130.605 163.76 130.647C163.858 130.688 163.946 130.749 164.018 130.825L164.02 130.827L164.024 130.831C184.354 152.253 192.867 168.392 187.382 175.107C178.267 186.266 133.544 166.521 85.5661 130.158Z" fill="white"/>
<path d="M111.319 184C154.75 184 189.957 149.078 189.957 106C189.957 62.9218 154.75 28 111.319 28C67.8885 28 32.6809 62.9218 32.6809 106C32.6809 149.078 67.8885 184 111.319 184Z" fill="#F2F2F2"/>
<path d="M182.986 106.976C182.987 116.298 181.136 125.53 177.539 134.143C173.943 142.756 168.671 150.582 162.025 157.174C155.379 163.766 147.489 168.995 138.805 172.562C130.122 176.13 120.815 177.965 111.416 177.965C103.039 177.96 94.7266 176.507 86.8527 173.67C74.5411 169.221 63.6959 161.508 55.498 151.369C47.3 141.23 42.0634 129.055 40.3584 116.168C38.6533 103.282 40.5451 90.1787 45.8278 78.285C51.1106 66.3913 59.5817 56.163 70.319 48.7138C81.0563 41.2646 93.6482 36.8799 106.724 36.0372C119.799 35.1944 132.857 37.9259 144.476 43.9342C156.095 49.9426 165.83 58.9975 172.62 70.1131C179.41 81.2287 182.995 93.9789 182.986 106.976Z" fill="white"/>
<path d="M87.4626 114.764C99.6622 114.764 109.552 104.955 109.552 92.8539C109.552 80.7533 99.6622 70.9438 87.4626 70.9438C75.2629 70.9438 65.3732 80.7533 65.3732 92.8539C65.3732 104.955 75.2629 114.764 87.4626 114.764Z" fill="#E4E4E4"/>
<path d="M180.194 87.2829C175.406 89.5674 169.949 90.0641 164.823 88.6819C159.696 87.2998 155.243 84.1314 152.28 79.7574C149.318 75.3834 148.043 70.0968 148.691 64.8666C149.339 59.6364 151.865 54.8129 155.807 51.2802C167.521 60.4658 176.048 73.0537 180.194 87.2829Z" fill="#F2F2F2"/>
<path d="M135.273 138.526C139.665 138.526 143.225 134.995 143.225 130.639C143.225 126.282 139.665 122.751 135.273 122.751C130.881 122.751 127.321 126.282 127.321 130.639C127.321 134.995 130.881 138.526 135.273 138.526Z" fill="#E4E4E4"/>
<path d="M102.58 175.335C102.58 176.028 102.488 176.717 102.307 177.386C97.0301 176.731 91.8457 175.485 86.8528 173.67C87.2675 171.767 88.3771 170.083 89.9681 168.943C91.5591 167.802 93.5191 167.286 95.471 167.492C97.423 167.699 99.2289 168.614 100.541 170.062C101.854 171.51 102.58 173.388 102.58 175.335Z" fill="#F2F2F2"/>
<path d="M55.7509 103.47C55.7505 107.472 54.2171 111.324 51.461 114.246C48.705 117.169 44.9323 118.943 40.9069 119.21C39.0848 108.793 39.616 98.1035 42.462 87.9139C46.1746 88.5279 49.5475 90.428 51.9807 93.2764C54.4139 96.1247 55.7499 99.7367 55.7509 103.47Z" fill="#F2F2F2"/>
<path d="M135.03 104.412C135.03 104.412 133.722 108.019 131.681 113.2C131.021 114.884 130.282 116.731 129.485 118.676C128.375 121.384 127.152 124.282 125.871 127.179C125.083 128.962 124.274 130.742 123.456 132.482C119.057 141.807 114.373 149.886 111.303 149.999C104.408 150.252 89.636 109.338 88.0238 104.817C87.9294 104.553 87.8808 104.412 87.8808 104.412H135.03Z" fill="#DDBEA9"/>
<path opacity="0.1" d="M131.681 113.2C131.021 114.884 130.282 116.731 129.485 118.676L111.218 104.412H120.426L131.681 113.2Z" fill="black"/>
<path opacity="0.1" d="M125.871 127.179C125.083 128.962 124.274 130.742 123.456 132.482L88.0238 104.817C87.9294 104.553 87.8808 104.412 87.8808 104.412H96.7145L125.871 127.179Z" fill="black"/>
<path d="M112.273 68.1752C110.112 69.6935 106.694 69.1194 104.617 70.7274C103.196 71.8273 102.817 73.7082 103.204 75.345C103.592 76.9818 104.622 78.4342 105.659 79.8316C106.374 80.7959 107.116 81.7679 108.121 82.5014C109.527 83.5269 111.33 84.0042 113.098 84.3877C116.948 85.2224 120.879 85.7277 124.838 85.8967C126.603 85.972 128.603 85.8967 129.792 84.7375C130.485 84.0625 130.763 83.1374 130.966 82.2427C131.284 80.8431 131.46 79.3363 130.804 78.0327C130.265 76.9612 129.227 76.158 128.176 75.4449C124.88 73.2083 120.998 71.3565 118.986 68.1373C118.186 66.8576 117.693 65.3748 116.481 64.382C114.901 63.0879 111.386 62.5588 109.526 63.4232C109.813 64.0042 113.569 67.2651 112.273 68.1752Z" fill="#DEAAFF"/>
<path d="M94.1099 83.2652C93.469 85.2359 92.8786 87.3209 93.4182 89.3153C94.1297 91.9447 96.7296 93.914 99.5816 94.8712C102.434 95.8284 105.544 95.9401 108.591 96.0411L124.546 96.5695C126.551 96.6359 128.595 96.7088 130.479 97.32C132.032 97.8238 133.878 98.6533 135.173 97.741C135.76 97.3272 136.024 96.6573 136.233 96.0183C136.911 93.9392 137.29 91.6562 136.378 89.6486C135.333 87.3481 132.756 85.8365 130.081 85.1139C127.405 84.3913 124.572 84.3209 121.792 84.0481C118.972 83.7711 116.184 83.2817 113.457 82.5851C111.178 82.0026 108.869 81.234 107.183 79.7545C106.271 78.9541 105.581 77.9781 104.721 77.1334C99.7973 72.2946 95.3209 79.5414 94.1099 83.2652Z" fill="#DEAAFF"/>
<path d="M90.6039 92.3186C89.0521 92.935 87.706 93.8963 86.6961 95.1094C85.6862 96.3225 85.0467 97.7463 84.8396 99.2429C84.6324 100.739 84.8645 102.258 85.5136 103.652C86.1626 105.046 87.2064 106.267 88.5441 107.198C90.9735 108.889 94.1527 109.477 97.233 109.673C100.241 109.866 103.262 109.733 106.273 109.601L132.922 108.431C134.484 108.362 136.252 108.203 137.205 107.103C137.917 106.283 137.959 105.151 137.789 104.127C137.178 100.444 134.041 97.1824 130.035 96.066C128.525 95.6449 126.934 95.5117 125.357 95.3809L113.934 94.4331C112.396 94.3054 110.848 94.1764 109.357 93.817C104.84 92.7281 100.803 89.5489 96.152 90.0196C92.9966 90.339 90.3986 92.2979 88.1065 94.2472" fill="#DEAAFF"/>
<path opacity="0.1" d="M105.524 76.359C105.524 76.359 109.252 82.3283 128.377 84.7385L105.524 76.359Z" fill="black"/>
<path opacity="0.1" d="M94.9449 91.9936C94.9449 91.9936 101.874 98.2082 130.467 98.2082L94.9449 91.9936Z" fill="black"/>
<path d="M110.999 73.3918C112.007 73.3918 112.824 73.1503 112.824 72.8524C112.824 72.5544 112.007 72.3129 110.999 72.3129C109.991 72.3129 109.174 72.5544 109.174 72.8524C109.174 73.1503 109.991 73.3918 110.999 73.3918Z" fill="#7D1AAB"/>
<path d="M117.083 76.8985C118.091 76.8985 118.908 76.6569 118.908 76.359C118.908 76.061 118.091 75.8195 117.083 75.8195C116.075 75.8195 115.258 76.061 115.258 76.359C115.258 76.6569 116.075 76.8985 117.083 76.8985Z" fill="#7D1AAB"/>
<path d="M124.079 80.6749C125.087 80.6749 125.905 80.4333 125.905 80.1354C125.905 79.8374 125.087 79.5959 124.079 79.5959C123.071 79.5959 122.254 79.8374 122.254 80.1354C122.254 80.4333 123.071 80.6749 124.079 80.6749Z" fill="#7D1AAB"/>
<path d="M99.7442 82.2933C100.752 82.2933 101.569 82.0518 101.569 81.7538C101.569 81.4559 100.752 81.2144 99.7442 81.2144C98.7362 81.2144 97.919 81.4559 97.919 81.7538C97.919 82.0518 98.7362 82.2933 99.7442 82.2933Z" fill="#7D1AAB"/>
<path d="M115.258 87.4184C116.266 87.4184 117.083 87.1769 117.083 86.879C117.083 86.581 116.266 86.3395 115.258 86.3395C114.25 86.3395 113.433 86.581 113.433 86.879C113.433 87.1769 114.25 87.4184 115.258 87.4184Z" fill="#7D1AAB"/>
<path d="M93.3561 97.9384C94.3641 97.9384 95.1813 97.6969 95.1813 97.3989C95.1813 97.101 94.3641 96.8595 93.3561 96.8595C92.3481 96.8595 91.531 97.101 91.531 97.3989C91.531 97.6969 92.3481 97.9384 93.3561 97.9384Z" fill="#7D1AAB"/>
<path d="M104.916 87.9579C105.924 87.9579 106.741 87.7164 106.741 87.4185C106.741 87.1205 105.924 86.879 104.916 86.879C103.907 86.879 103.09 87.1205 103.09 87.4185C103.09 87.7164 103.907 87.9579 104.916 87.9579Z" fill="#7D1AAB"/>
<path d="M97.919 101.985C98.927 101.985 99.7442 101.743 99.7442 101.445C99.7442 101.147 98.927 100.906 97.919 100.906C96.911 100.906 96.0939 101.147 96.0939 101.445C96.0939 101.743 96.911 101.985 97.919 101.985Z" fill="#7D1AAB"/>
<path d="M109.782 99.5569C110.79 99.5569 111.608 99.3153 111.608 99.0174C111.608 98.7194 110.79 98.4779 109.782 98.4779C108.774 98.4779 107.957 98.7194 107.957 99.0174C107.957 99.3153 108.774 99.5569 109.782 99.5569Z" fill="#7D1AAB"/>
<path d="M116.931 112.505C118.023 112.505 118.908 110.874 118.908 108.863C118.908 106.852 118.023 105.221 116.931 105.221C115.839 105.221 114.954 106.852 114.954 108.863C114.954 110.874 115.839 112.505 116.931 112.505Z" fill="#DEAAFF"/>
<path d="M119.365 113.853C120.457 113.853 121.342 112.223 121.342 110.212C121.342 108.201 120.457 106.57 119.365 106.57C118.273 106.57 117.387 108.201 117.387 110.212C117.387 112.223 118.273 113.853 119.365 113.853Z" fill="#DEAAFF"/>
</g>
<path d="M74.4417 7.63636C74.4417 8.55682 74.2755 9.35227 73.9431 10.0227C73.6107 10.6932 73.1548 11.2102 72.5752 11.5739C71.9957 11.9375 71.3337 12.1193 70.5894 12.1193C69.8451 12.1193 69.1832 11.9375 68.6036 11.5739C68.0241 11.2102 67.5681 10.6932 67.2357 10.0227C66.9033 9.35227 66.7371 8.55682 66.7371 7.63636C66.7371 6.71591 66.9033 5.92045 67.2357 5.25C67.5681 4.57955 68.0241 4.0625 68.6036 3.69886C69.1832 3.33523 69.8451 3.15341 70.5894 3.15341C71.3337 3.15341 71.9957 3.33523 72.5752 3.69886C73.1548 4.0625 73.6107 4.57955 73.9431 5.25C74.2755 5.92045 74.4417 6.71591 74.4417 7.63636ZM73.419 7.63636C73.419 6.88068 73.2925 6.2429 73.0397 5.72301C72.7897 5.20312 72.4502 4.80966 72.0212 4.54261C71.5951 4.27557 71.1178 4.14205 70.5894 4.14205C70.061 4.14205 69.5823 4.27557 69.1533 4.54261C68.7272 4.80966 68.3877 5.20312 68.1349 5.72301C67.8849 6.2429 67.7599 6.88068 67.7599 7.63636C67.7599 8.39205 67.8849 9.02983 68.1349 9.54972C68.3877 10.0696 68.7272 10.4631 69.1533 10.7301C69.5823 10.9972 70.061 11.1307 70.5894 11.1307C71.1178 11.1307 71.5951 10.9972 72.0212 10.7301C72.4502 10.4631 72.7897 10.0696 73.0397 9.54972C73.2925 9.02983 73.419 8.39205 73.419 7.63636ZM76.0823 14.4545V5.45455H77.0539V6.49432H77.1732C77.2471 6.38068 77.3494 6.2358 77.48 6.05966C77.6136 5.88068 77.8039 5.72159 78.0511 5.58239C78.3011 5.44034 78.6391 5.36932 79.0653 5.36932C79.6164 5.36932 80.1022 5.5071 80.5227 5.78267C80.9431 6.05824 81.2712 6.44886 81.507 6.95455C81.7428 7.46023 81.8607 8.05682 81.8607 8.74432C81.8607 9.4375 81.7428 10.0384 81.507 10.5469C81.2712 11.0526 80.9445 11.4446 80.5269 11.723C80.1093 11.9986 79.6278 12.1364 79.0823 12.1364C78.6619 12.1364 78.3252 12.0668 78.0724 11.9276C77.8195 11.7855 77.6249 11.625 77.4886 11.446C77.3522 11.2642 77.2471 11.1136 77.1732 10.9943H77.088V14.4545H76.0823ZM77.071 8.72727C77.071 9.22159 77.1434 9.65767 77.2883 10.0355C77.4332 10.4105 77.6448 10.7045 77.9232 10.9176C78.2016 11.1278 78.5425 11.233 78.946 11.233C79.3664 11.233 79.7173 11.1222 79.9985 10.9006C80.2826 10.6761 80.4957 10.375 80.6377 9.99716C80.7826 9.61648 80.855 9.19318 80.855 8.72727C80.855 8.26705 80.784 7.85227 80.642 7.48295C80.5028 7.1108 80.2911 6.81676 80.007 6.60085C79.7258 6.3821 79.3721 6.27273 78.946 6.27273C78.5369 6.27273 78.1931 6.37642 77.9147 6.58381C77.6363 6.78835 77.4261 7.07528 77.284 7.4446C77.142 7.81108 77.071 8.23864 77.071 8.72727ZM86.0539 12.1364C85.4403 12.1364 84.9119 11.9915 84.4687 11.7017C84.0255 11.4119 83.6846 11.0128 83.446 10.5043C83.2073 9.99574 83.088 9.41477 83.088 8.76136C83.088 8.09659 83.2102 7.50994 83.4545 7.00142C83.7016 6.49006 84.0454 6.09091 84.4857 5.80398C84.9289 5.5142 85.446 5.36932 86.0369 5.36932C86.4971 5.36932 86.9119 5.45455 87.2812 5.625C87.6505 5.79545 87.9531 6.03409 88.1889 6.34091C88.4246 6.64773 88.571 7.00568 88.6278 7.41477H87.6221C87.5454 7.11648 87.3749 6.85227 87.1107 6.62216C86.8494 6.3892 86.4971 6.27273 86.0539 6.27273C85.6619 6.27273 85.3181 6.375 85.0227 6.57955C84.73 6.78125 84.5014 7.06676 84.3366 7.43608C84.1746 7.80256 84.0937 8.23295 84.0937 8.72727C84.0937 9.23295 84.1732 9.6733 84.3323 10.0483C84.4943 10.4233 84.7215 10.7145 85.0141 10.9219C85.3096 11.1293 85.6562 11.233 86.0539 11.233C86.3153 11.233 86.5525 11.1875 86.7656 11.0966C86.9786 11.0057 87.159 10.875 87.3068 10.7045C87.4545 10.5341 87.5596 10.3295 87.6221 10.0909H88.6278C88.571 10.4773 88.4303 10.8253 88.2059 11.1349C87.9843 11.4418 87.6903 11.6861 87.3238 11.8679C86.9602 12.0469 86.5369 12.1364 86.0539 12.1364ZM85.5766 11.9659H86.4119L86.3437 12.3068C86.5653 12.3409 86.7684 12.4332 86.9531 12.5838C87.1377 12.7372 87.23 12.9801 87.23 13.3125C87.23 13.679 87.0781 13.9773 86.7741 14.2074C86.4729 14.4403 86.0283 14.5568 85.4403 14.5568L85.4062 13.892C85.6704 13.892 85.8891 13.8494 86.0624 13.7642C86.2386 13.6818 86.3266 13.5426 86.3266 13.3466C86.3266 13.1506 86.2542 13.017 86.1093 12.946C85.9644 12.875 85.73 12.8267 85.4062 12.8011L85.5766 11.9659ZM92.757 12.1364C92.1661 12.1364 91.6477 11.9957 91.2016 11.7145C90.7585 11.4332 90.4119 11.0398 90.1619 10.5341C89.9147 10.0284 89.7911 9.4375 89.7911 8.76136C89.7911 8.07955 89.9147 7.48437 90.1619 6.97585C90.4119 6.46733 90.7585 6.07244 91.2016 5.79119C91.6477 5.50994 92.1661 5.36932 92.757 5.36932C93.3479 5.36932 93.865 5.50994 94.3082 5.79119C94.7542 6.07244 95.1008 6.46733 95.3479 6.97585C95.5979 7.48437 95.7229 8.07955 95.7229 8.76136C95.7229 9.4375 95.5979 10.0284 95.3479 10.5341C95.1008 11.0398 94.7542 11.4332 94.3082 11.7145C93.865 11.9957 93.3479 12.1364 92.757 12.1364ZM92.757 11.233C93.2059 11.233 93.5752 11.1179 93.865 10.8878C94.1548 10.6577 94.3693 10.3551 94.5085 9.98011C94.6477 9.60511 94.7173 9.19886 94.7173 8.76136C94.7173 8.32386 94.6477 7.91619 94.5085 7.53835C94.3693 7.16051 94.1548 6.85511 93.865 6.62216C93.5752 6.3892 93.2059 6.27273 92.757 6.27273C92.3082 6.27273 91.9389 6.3892 91.6491 6.62216C91.3593 6.85511 91.1448 7.16051 91.0056 7.53835C90.8664 7.91619 90.7968 8.32386 90.7968 8.76136C90.7968 9.19886 90.8664 9.60511 91.0056 9.98011C91.1448 10.3551 91.3593 10.6577 91.6491 10.8878C91.9389 11.1179 92.3082 11.233 92.757 11.233ZM91.4445 4.67045L90.6604 4.63636C90.6604 4.2017 90.784 3.84659 91.0312 3.57102C91.2812 3.29261 91.5894 3.15341 91.9559 3.15341C92.1178 3.15341 92.2613 3.18182 92.3863 3.23864C92.5113 3.29261 92.6306 3.35511 92.7443 3.42614C92.8579 3.49716 92.9744 3.56108 93.0937 3.6179C93.2158 3.67187 93.3536 3.69886 93.507 3.69886C93.669 3.69886 93.8053 3.63636 93.9161 3.51136C94.0298 3.38352 94.0866 3.23011 94.0866 3.05114L94.8536 3.11932C94.8536 3.5625 94.7286 3.91477 94.4786 4.17614C94.2315 4.4375 93.9246 4.56818 93.5582 4.56818C93.3621 4.56818 93.2002 4.54119 93.0724 4.48722C92.9445 4.4304 92.8309 4.36648 92.7315 4.29545C92.632 4.22443 92.5269 4.16193 92.4161 4.10795C92.3053 4.05114 92.169 4.02273 92.007 4.02273C91.8451 4.02273 91.7102 4.08665 91.6022 4.21449C91.4971 4.33949 91.4445 4.49148 91.4445 4.67045ZM100.002 12.1364C99.3717 12.1364 98.8277 11.9972 98.3703 11.7188C97.9158 11.4375 97.5649 11.0455 97.3178 10.5426C97.0734 10.0369 96.9513 9.44886 96.9513 8.77841C96.9513 8.10795 97.0734 7.51705 97.3178 7.00568C97.5649 6.49148 97.9087 6.09091 98.349 5.80398C98.7922 5.5142 99.3092 5.36932 99.9001 5.36932C100.241 5.36932 100.578 5.42614 100.91 5.53977C101.242 5.65341 101.545 5.83807 101.818 6.09375C102.09 6.34659 102.308 6.68182 102.47 7.09943C102.632 7.51705 102.713 8.03125 102.713 8.64205V9.06818H97.6672V8.19886H101.69C101.69 7.82955 101.616 7.5 101.468 7.21023C101.323 6.92045 101.116 6.69176 100.846 6.52415C100.579 6.35653 100.264 6.27273 99.9001 6.27273C99.4996 6.27273 99.153 6.37216 98.8604 6.57102C98.5706 6.76705 98.3476 7.02273 98.1913 7.33807C98.0351 7.65341 97.957 7.99148 97.957 8.35227V8.93182C97.957 9.42614 98.0422 9.84517 98.2126 10.1889C98.3859 10.5298 98.626 10.7898 98.9328 10.9688C99.2396 11.1449 99.5962 11.233 100.002 11.233C100.267 11.233 100.505 11.196 100.718 11.1222C100.934 11.0455 101.12 10.9318 101.277 10.7812C101.433 10.6278 101.554 10.4375 101.639 10.2102L102.61 10.483C102.508 10.8125 102.336 11.1023 102.095 11.3523C101.853 11.5994 101.555 11.7926 101.2 11.9318C100.845 12.0682 100.446 12.1364 100.002 12.1364ZM108.879 6.92045L107.975 7.17614C107.919 7.02557 107.835 6.87926 107.724 6.73722C107.616 6.59233 107.468 6.47301 107.281 6.37926C107.093 6.28551 106.853 6.23864 106.561 6.23864C106.16 6.23864 105.826 6.33097 105.559 6.51562C105.295 6.69744 105.163 6.92898 105.163 7.21023C105.163 7.46023 105.254 7.65767 105.436 7.80256C105.617 7.94744 105.902 8.06818 106.288 8.16477L107.26 8.40341C107.845 8.54545 108.281 8.76278 108.568 9.0554C108.855 9.34517 108.998 9.71875 108.998 10.1761C108.998 10.5511 108.89 10.8864 108.674 11.1818C108.461 11.4773 108.163 11.7102 107.779 11.8807C107.396 12.0511 106.95 12.1364 106.441 12.1364C105.774 12.1364 105.221 11.9915 104.784 11.7017C104.346 11.4119 104.069 10.9886 103.953 10.4318L104.907 10.1932C104.998 10.5455 105.17 10.8097 105.423 10.9858C105.679 11.1619 106.012 11.25 106.424 11.25C106.893 11.25 107.265 11.1506 107.541 10.9517C107.819 10.75 107.958 10.5085 107.958 10.2273C107.958 10 107.879 9.80966 107.72 9.65625C107.561 9.5 107.316 9.38352 106.987 9.30682L105.896 9.05114C105.296 8.90909 104.856 8.68892 104.575 8.39062C104.296 8.08949 104.157 7.71307 104.157 7.26136C104.157 6.89205 104.261 6.56534 104.468 6.28125C104.679 5.99716 104.964 5.77415 105.325 5.61222C105.688 5.45028 106.1 5.36932 106.561 5.36932C107.208 5.36932 107.717 5.51136 108.086 5.79545C108.458 6.07955 108.723 6.45455 108.879 6.92045ZM116.359 12.1364C115.813 12.1364 115.332 11.9986 114.914 11.723C114.496 11.4446 114.17 11.0526 113.934 10.5469C113.698 10.0384 113.58 9.4375 113.58 8.74432C113.58 8.05682 113.698 7.46023 113.934 6.95455C114.17 6.44886 114.498 6.05824 114.918 5.78267C115.339 5.5071 115.825 5.36932 116.376 5.36932C116.802 5.36932 117.138 5.44034 117.386 5.58239C117.636 5.72159 117.826 5.88068 117.957 6.05966C118.09 6.2358 118.194 6.38068 118.268 6.49432H118.353V3.27273H119.359V12H118.387V10.9943H118.268C118.194 11.1136 118.089 11.2642 117.952 11.446C117.816 11.625 117.621 11.7855 117.369 11.9276C117.116 12.0668 116.779 12.1364 116.359 12.1364ZM116.495 11.233C116.898 11.233 117.239 11.1278 117.518 10.9176C117.796 10.7045 118.008 10.4105 118.153 10.0355C118.298 9.65767 118.37 9.22159 118.37 8.72727C118.37 8.23864 118.299 7.81108 118.157 7.4446C118.015 7.07528 117.805 6.78835 117.526 6.58381C117.248 6.37642 116.904 6.27273 116.495 6.27273C116.069 6.27273 115.714 6.3821 115.43 6.60085C115.148 6.81676 114.937 7.1108 114.795 7.48295C114.655 7.85227 114.586 8.26705 114.586 8.72727C114.586 9.19318 114.657 9.61648 114.799 9.99716C114.944 10.375 115.157 10.6761 115.438 10.9006C115.722 11.1222 116.075 11.233 116.495 11.233ZM124.084 12.1364C123.454 12.1364 122.91 11.9972 122.452 11.7188C121.998 11.4375 121.647 11.0455 121.4 10.5426C121.155 10.0369 121.033 9.44886 121.033 8.77841C121.033 8.10795 121.155 7.51705 121.4 7.00568C121.647 6.49148 121.991 6.09091 122.431 5.80398C122.874 5.5142 123.391 5.36932 123.982 5.36932C124.323 5.36932 124.66 5.42614 124.992 5.53977C125.325 5.65341 125.627 5.83807 125.9 6.09375C126.173 6.34659 126.39 6.68182 126.552 7.09943C126.714 7.51705 126.795 8.03125 126.795 8.64205V9.06818H121.749V8.19886H125.772C125.772 7.82955 125.698 7.5 125.55 7.21023C125.405 6.92045 125.198 6.69176 124.928 6.52415C124.661 6.35653 124.346 6.27273 123.982 6.27273C123.582 6.27273 123.235 6.37216 122.942 6.57102C122.653 6.76705 122.43 7.02273 122.273 7.33807C122.117 7.65341 122.039 7.99148 122.039 8.35227V8.93182C122.039 9.42614 122.124 9.84517 122.295 10.1889C122.468 10.5298 122.708 10.7898 123.015 10.9688C123.322 11.1449 123.678 11.233 124.084 11.233C124.349 11.233 124.587 11.196 124.8 11.1222C125.016 11.0455 125.202 10.9318 125.359 10.7812C125.515 10.6278 125.636 10.4375 125.721 10.2102L126.692 10.483C126.59 10.8125 126.418 11.1023 126.177 11.3523C125.935 11.5994 125.637 11.7926 125.282 11.9318C124.927 12.0682 124.528 12.1364 124.084 12.1364ZM132.705 3.27273V12H131.7V3.27273H132.705ZM137.206 12.1364C136.615 12.1364 136.097 11.9957 135.651 11.7145C135.208 11.4332 134.861 11.0398 134.611 10.5341C134.364 10.0284 134.24 9.4375 134.24 8.76136C134.24 8.07955 134.364 7.48437 134.611 6.97585C134.861 6.46733 135.208 6.07244 135.651 5.79119C136.097 5.50994 136.615 5.36932 137.206 5.36932C137.797 5.36932 138.314 5.50994 138.757 5.79119C139.203 6.07244 139.55 6.46733 139.797 6.97585C140.047 7.48437 140.172 8.07955 140.172 8.76136C140.172 9.4375 140.047 10.0284 139.797 10.5341C139.55 11.0398 139.203 11.4332 138.757 11.7145C138.314 11.9957 137.797 12.1364 137.206 12.1364ZM137.206 11.233C137.655 11.233 138.024 11.1179 138.314 10.8878C138.604 10.6577 138.818 10.3551 138.958 9.98011C139.097 9.60511 139.166 9.19886 139.166 8.76136C139.166 8.32386 139.097 7.91619 138.958 7.53835C138.818 7.16051 138.604 6.85511 138.314 6.62216C138.024 6.3892 137.655 6.27273 137.206 6.27273C136.757 6.27273 136.388 6.3892 136.098 6.62216C135.809 6.85511 135.594 7.16051 135.455 7.53835C135.316 7.91619 135.246 8.32386 135.246 8.76136C135.246 9.19886 135.316 9.60511 135.455 9.98011C135.594 10.3551 135.809 10.6577 136.098 10.8878C136.388 11.1179 136.757 11.233 137.206 11.233ZM144.349 14.5909C143.864 14.5909 143.446 14.5284 143.097 14.4034C142.747 14.2812 142.456 14.1193 142.223 13.9176C141.993 13.7188 141.81 13.5057 141.673 13.2784L142.474 12.7159C142.565 12.8352 142.68 12.9716 142.82 13.125C142.959 13.2812 143.149 13.4162 143.391 13.5298C143.635 13.6463 143.954 13.7045 144.349 13.7045C144.878 13.7045 145.314 13.5767 145.658 13.321C146.001 13.0653 146.173 12.6648 146.173 12.1193V10.7898H146.088C146.014 10.9091 145.909 11.0568 145.773 11.233C145.639 11.4062 145.446 11.5611 145.193 11.6974C144.943 11.831 144.605 11.8977 144.179 11.8977C143.651 11.8977 143.176 11.7727 142.756 11.5227C142.338 11.2727 142.007 10.9091 141.763 10.4318C141.521 9.95455 141.401 9.375 141.401 8.69318C141.401 8.02273 141.518 7.43892 141.754 6.94176C141.99 6.44176 142.318 6.0554 142.739 5.78267C143.159 5.5071 143.645 5.36932 144.196 5.36932C144.622 5.36932 144.96 5.44034 145.21 5.58239C145.463 5.72159 145.656 5.88068 145.79 6.05966C145.926 6.2358 146.031 6.38068 146.105 6.49432H146.207V5.45455H147.179V12.1875C147.179 12.75 147.051 13.2074 146.795 13.5597C146.543 13.9148 146.202 14.1747 145.773 14.3395C145.347 14.5071 144.872 14.5909 144.349 14.5909ZM144.315 10.9943C144.719 10.9943 145.06 10.902 145.338 10.7173C145.616 10.5327 145.828 10.267 145.973 9.92045C146.118 9.57386 146.19 9.15909 146.19 8.67614C146.19 8.20455 146.119 7.78835 145.977 7.42756C145.835 7.06676 145.625 6.78409 145.347 6.57955C145.068 6.375 144.724 6.27273 144.315 6.27273C143.889 6.27273 143.534 6.38068 143.25 6.59659C142.969 6.8125 142.757 7.10227 142.615 7.46591C142.476 7.82955 142.406 8.23295 142.406 8.67614C142.406 9.13068 142.477 9.53267 142.619 9.8821C142.764 10.2287 142.977 10.5014 143.258 10.7003C143.543 10.8963 143.895 10.9943 144.315 10.9943ZM151.679 12.1364C151.088 12.1364 150.57 11.9957 150.124 11.7145C149.68 11.4332 149.334 11.0398 149.084 10.5341C148.837 10.0284 148.713 9.4375 148.713 8.76136C148.713 8.07955 148.837 7.48437 149.084 6.97585C149.334 6.46733 149.68 6.07244 150.124 5.79119C150.57 5.50994 151.088 5.36932 151.679 5.36932C152.27 5.36932 152.787 5.50994 153.23 5.79119C153.676 6.07244 154.023 6.46733 154.27 6.97585C154.52 7.48437 154.645 8.07955 154.645 8.76136C154.645 9.4375 154.52 10.0284 154.27 10.5341C154.023 11.0398 153.676 11.4332 153.23 11.7145C152.787 11.9957 152.27 12.1364 151.679 12.1364ZM151.679 11.233C152.128 11.233 152.497 11.1179 152.787 10.8878C153.077 10.6577 153.291 10.3551 153.43 9.98011C153.57 9.60511 153.639 9.19886 153.639 8.76136C153.639 8.32386 153.57 7.91619 153.43 7.53835C153.291 7.16051 153.077 6.85511 152.787 6.62216C152.497 6.3892 152.128 6.27273 151.679 6.27273C151.23 6.27273 150.861 6.3892 150.571 6.62216C150.281 6.85511 150.067 7.16051 149.927 7.53835C149.788 7.91619 149.719 8.32386 149.719 8.76136C149.719 9.19886 149.788 9.60511 149.927 9.98011C150.067 10.3551 150.281 10.6577 150.571 10.8878C150.861 11.1179 151.23 11.233 151.679 11.233Z" fill="black"/>
<defs>
<filter id="filter0_d_12_64" x="28" y="236" width="165.277" height="164" filterUnits="userSpaceOnUse" color-interpolation-filters="sRGB">
<feFlood flood-opacity="0" result="BackgroundImageFix"/>
<feColorMatrix in="SourceAlpha" type="matrix" values="0 0 0 0 0 0 0 0 0 0 0 0 0 0 0 0 0 0 127 0" result="hardAlpha"/>
<feOffset dy="4"/>
<feGaussianBlur stdDeviation="2"/>
<feComposite in2="hardAlpha" operator="out"/>
<feColorMatrix type="matrix" values="0 0 0 0 0 0 0 0 0 0 0 0 0 0 0 0 0 0 0.25 0"/>
<feBlend mode="normal" in2="BackgroundImageFix" result="effect1_dropShadow_12_64"/>
<feBlend mode="normal" in="SourceGraphic" in2="effect1_dropShadow_12_64" result="shape"/>
</filter>
<filter id="filter1_d_12_64" x="6.12323" y="28" width="211.173" height="164" filterUnits="userSpaceOnUse" color-interpolation-filters="sRGB">
<feFlood flood-opacity="0" result="BackgroundImageFix"/>
<feColorMatrix in="SourceAlpha" type="matrix" values="0 0 0 0 0 0 0 0 0 0 0 0 0 0 0 0 0 0 127 0" result="hardAlpha"/>
<feOffset dy="4"/>
<feGaussianBlur stdDeviation="2"/>
<feComposite in2="hardAlpha" operator="out"/>
<feColorMatrix type="matrix" values="0 0 0 0 0 0 0 0 0 0 0 0 0 0 0 0 0 0 0.25 0"/>
<feBlend mode="normal" in2="BackgroundImageFix" result="effect1_dropShadow_12_64"/>
<feBlend mode="normal" in="SourceGraphic" in2="effect1_dropShadow_12_64" result="shape"/>
</filter>
</defs>
</svg>
